<svg id="Шар_2" data-name="Шар 2" xmlns="http://www.w3.org/2000/svg" width="400" height="400" viewBox="0 0 400 400"><defs><style>.cls-1{fill:#7ab0e5;}.cls-2{fill:#ccc9d0;}.cls-3{fill:#fff;}.cls-4{fill:#e19747;}.cls-5{fill:#ccc9c6;}.cls-6{fill:#08a534;}</style></defs><rect class="cls-1" x="45" y="11.49" width="310" height="377.03"/><polygon class="cls-2" points="253.43 357.06 77.48 357.06 77.48 51.36 328.83 51.36 328.83 290.03 253.43 357.06"/><polygon class="cls-3" points="250.27 352.85 74.32 352.85 74.32 47.15 325.68 47.15 325.68 285.82 250.27 352.85"/><rect class="cls-4" x="141.35" y="24.05" width="108.92" height="50.27"/><rect class="cls-3" x="166.49" y="49.19" width="58.65" height="16.76"/><rect class="cls-1" x="166.49" y="32.43" width="58.65" height="8.38"/><polygon class="cls-5" points="250.27 285.82 325.68 285.82 250.27 352.85 250.27 285.82"/><rect class="cls-5" x="103.65" y="99.46" width="192.7" height="8.38"/><rect class="cls-5" x="103.65" y="132.97" width="192.7" height="8.38"/><rect class="cls-5" x="103.65" y="166.49" width="192.7" height="8.38"/><rect class="cls-5" x="103.65" y="200" width="192.7" height="8.38"/><rect class="cls-5" x="103.65" y="233.51" width="192.7" height="8.38"/><rect class="cls-5" x="103.65" y="267.03" width="192.7" height="8.38"/><path class="cls-6" d="M126.69,334.05a4.1,4.1,0,0,1-.5,0,4.22,4.22,0,0,1-3.25-2.29l-16.75-33.51a4.19,4.19,0,1,1,7.49-3.75l13.92,27.84,42.16-49.63a4.19,4.19,0,1,1,6.38,5.43l-46.26,54.46A4.19,4.19,0,0,1,126.69,334.05Z"/></svg>