<svg id="Шар_1" data-name="Шар 1" xmlns="http://www.w3.org/2000/svg" width="100" height="100" viewBox="0 0 100 100"><defs><style>.cls-1{fill:#757272;}</style></defs><path class="cls-1" d="M50,85.06A35.06,35.06,0,1,1,85.06,50,35.1,35.1,0,0,1,50,85.06Zm0-67.12A32.06,32.06,0,1,0,82.06,50,32.09,32.09,0,0,0,50,17.94Z"/><path class="cls-1" d="M46.9,59.78a1.52,1.52,0,0,1-1.06-.43l-12-11.79A1.5,1.5,0,0,1,36,45.43L46.94,56.22,64.05,40.61a1.5,1.5,0,0,1,2,2.22L47.91,59.39A1.51,1.51,0,0,1,46.9,59.78Z"/></svg>